FILE "Tomb Raider (Germany) (Track 01).bin" BINARY
  TRACK 01 MODE2/2352
    INDEX 01 00:00:00
  TRACK 02 AUDIO
    INDEX 00 27:47:11
    INDEX 01 27:49:11
  TRACK 03 AUDIO
    INDEX 00 31:03:54
    INDEX 01 31:05:54
  TRACK 04 AUDIO
    INDEX 00 32:07:52
    INDEX 01 32:09:52
  TRACK 05 AUDIO
    INDEX 00 34:11:16
    INDEX 01 34:13:16
  TRACK 06 AUDIO
    INDEX 00 36:11:27
    INDEX 01 36:13:27
  TRACK 07 AUDIO
    INDEX 00 37:28:26
    INDEX 01 37:30:26
  TRACK 08 AUDIO
    INDEX 00 38:24:17
    INDEX 01 38:26:17
  TRACK 09 AUDIO
    INDEX 00 39:32:36
    INDEX 01 39:34:36
  TRACK 10 AUDIO
    INDEX 00 40:12:42
    INDEX 01 40:14:42
  TRACK 11 AUDIO
    INDEX 00 41:31:63
    INDEX 01 41:33:63
  TRACK 12 AUDIO
    INDEX 00 41:40:25
    INDEX 01 41:42:25
  TRACK 13 AUDIO
    INDEX 00 41:55:24
    INDEX 01 41:57:24
  TRACK 14 AUDIO
    INDEX 00 42:02:27
    INDEX 01 42:04:27
  TRACK 15 AUDIO
    INDEX 00 42:14:32
    INDEX 01 42:16:32
  TRACK 16 AUDIO
    INDEX 00 42:25:35
    INDEX 01 42:27:35
  TRACK 17 AUDIO
    INDEX 00 43:04:23
    INDEX 01 43:06:23
  TRACK 18 AUDIO
    INDEX 00 43:47:12
    INDEX 01 43:49:12
  TRACK 19 AUDIO
    INDEX 00 44:12:36
    INDEX 01 44:14:36
  TRACK 20 AUDIO
    INDEX 00 45:41:06
    INDEX 01 45:43:06
  TRACK 21 AUDIO
    INDEX 00 46:35:23
    INDEX 01 46:37:23
  TRACK 22 AUDIO
    INDEX 00 47:16:40
    INDEX 01 47:18:40
  TRACK 23 AUDIO
    INDEX 00 48:20:03
    INDEX 01 48:22:03
  TRACK 24 AUDIO
    INDEX 00 49:17:51
    INDEX 01 49:19:51
  TRACK 25 AUDIO
    INDEX 00 49:33:04
    INDEX 01 49:35:04
  TRACK 26 AUDIO
    INDEX 00 50:09:50
    INDEX 01 50:11:50
  TRACK 27 AUDIO
    INDEX 00 50:16:50
    INDEX 01 50:18:50
  TRACK 28 AUDIO
    INDEX 00 50:23:51
    INDEX 01 50:25:51
  TRACK 29 AUDIO
    INDEX 00 50:30:51
    INDEX 01 50:32:51
  TRACK 30 AUDIO
    INDEX 00 50:37:51
    INDEX 01 50:39:51
  TRACK 31 AUDIO
    INDEX 00 50:45:46
    INDEX 01 50:47:46
  TRACK 32 AUDIO
    INDEX 00 50:53:40
    INDEX 01 50:55:40
  TRACK 33 AUDIO
    INDEX 00 51:02:26
    INDEX 01 51:04:26
  TRACK 34 AUDIO
    INDEX 00 51:12:09
    INDEX 01 51:14:09
  TRACK 35 AUDIO
    INDEX 00 51:19:69
    INDEX 01 51:21:69
  TRACK 36 AUDIO
    INDEX 00 51:27:10
    INDEX 01 51:29:10
  TRACK 37 AUDIO
    INDEX 00 51:44:21
    INDEX 01 51:46:21
  TRACK 38 AUDIO
    INDEX 00 51:51:22
    INDEX 01 51:53:22
  TRACK 39 AUDIO
    INDEX 00 51:58:23
    INDEX 01 52:00:23
  TRACK 40 AUDIO
    INDEX 00 52:14:43
    INDEX 01 52:16:43
  TRACK 41 AUDIO
    INDEX 00 52:26:18
    INDEX 01 52:28:18
  TRACK 42 AUDIO
    INDEX 00 52:33:19
    INDEX 01 52:35:19
  TRACK 43 AUDIO
    INDEX 00 52:40:20
    INDEX 01 52:42:20
  TRACK 44 AUDIO
    INDEX 00 52:50:25
    INDEX 01 52:52:25
  TRACK 45 AUDIO
    INDEX 00 52:58:21
    INDEX 01 53:00:21
  TRACK 46 AUDIO
    INDEX 00 53:08:62
    INDEX 01 53:10:62
  TRACK 47 AUDIO
    INDEX 00 53:15:62
    INDEX 01 53:17:62
  TRACK 48 AUDIO
    INDEX 00 53:22:62
    INDEX 01 53:24:62
  TRACK 49 AUDIO
    INDEX 00 53:29:63
    INDEX 01 53:31:63
  TRACK 50 AUDIO
    INDEX 00 53:45:21
    INDEX 01 53:47:21
  TRACK 51 AUDIO
    INDEX 00 53:52:22
    INDEX 01 53:54:22
  TRACK 52 AUDIO
    INDEX 00 53:59:22
    INDEX 01 54:01:22
  TRACK 53 AUDIO
    INDEX 00 54:06:22
    INDEX 01 54:08:22
  TRACK 54 AUDIO
    INDEX 00 54:15:41
    INDEX 01 54:17:41
  TRACK 55 AUDIO
    INDEX 00 54:22:42
    INDEX 01 54:24:42
  TRACK 56 AUDIO
    INDEX 00 54:40:47
    INDEX 01 54:42:47
  TRACK 57 AUDIO
    INDEX 00 54:47:47
    INDEX 01 54:49:47
